<svg xmlns:xlink="http://www.w3.org/1999/xlink" version="1.1" class="highcharts-root" style="font-family:&quot;Lucida Grande&quot;, &quot;Lucida Sans Unicode&quot;, Arial, Helvetica, sans-serif;font-size:12px;" xmlns="http://www.w3.org/2000/svg" width="680" height="550" viewBox="0 0 680 550"><desc>Created with Highcharts 6.1.0</desc><defs><clipPath id="highcharts-i8cp32w-11"><rect x="0" y="0" width="370" height="450" fill="none"></rect></clipPath></defs><rect fill="#ffffff" class="highcharts-background" x="0" y="0" width="680" height="550" rx="0" ry="0"></rect><rect fill="none" class="highcharts-plot-background" x="190" y="100" width="450" height="370"></rect><g class="highcharts-pane-group"></g><g class="highcharts-plot-lines-0"><path fill="none" stroke-dasharray="none" d="M 190 123.5 L 640 123.5"></path></g><g class="highcharts-plot-lines-0"><path fill="none" stroke="#c0c0c0" stroke-width="1" stroke-dasharray="none" d="M 189.5 100 L 189.5 470"></path></g><g class="highcharts-grid highcharts-xaxis-grid "><path fill="none" stroke-dasharray="0,0" class="highcharts-grid-line" d="M 190 123.5 L 640 123.5" opacity="1"></path><path fill="none" stroke-dasharray="0,0" class="highcharts-grid-line" d="M 190 169.5 L 640 169.5" opacity="1"></path><path fill="none" stroke-dasharray="0,0" class="highcharts-grid-line" d="M 190 216.5 L 640 216.5" opacity="1"></path><path fill="none" stroke-dasharray="0,0" class="highcharts-grid-line" d="M 190 262.5 L 640 262.5" opacity="1"></path><path fill="none" stroke-dasharray="0,0" class="highcharts-grid-line" d="M 190 308.5 L 640 308.5" opacity="1"></path><path fill="none" stroke-dasharray="0,0" class="highcharts-grid-line" d="M 190 354.5 L 640 354.5" opacity="1"></path><path fill="none" stroke-dasharray="0,0" class="highcharts-grid-line" d="M 190 401.5 L 640 401.5" opacity="1"></path><path fill="none" stroke-dasharray="0,0" class="highcharts-grid-line" d="M 190 447.5 L 640 447.5" opacity="1"></path></g><g class="highcharts-grid highcharts-yaxis-grid "><path fill="none" stroke="#c0c0c0" stroke-width="1" stroke-dasharray="1,3" class="highcharts-grid-line" d="M 189.5 100 L 189.5 470" opacity="1"></path><path fill="none" stroke="#c0c0c0" stroke-width="1" stroke-dasharray="1,3" class="highcharts-grid-line" d="M 245.5 100 L 245.5 470" opacity="1"></path><path fill="none" stroke="#c0c0c0" stroke-width="1" stroke-dasharray="1,3" class="highcharts-grid-line" d="M 302.5 100 L 302.5 470" opacity="1"></path><path fill="none" stroke="#c0c0c0" stroke-width="1" stroke-dasharray="1,3" class="highcharts-grid-line" d="M 358.5 100 L 358.5 470" opacity="1"></path><path fill="none" stroke="#c0c0c0" stroke-width="1" stroke-dasharray="1,3" class="highcharts-grid-line" d="M 414.5 100 L 414.5 470" opacity="1"></path><path fill="none" stroke="#c0c0c0" stroke-width="1" stroke-dasharray="1,3" class="highcharts-grid-line" d="M 470.5 100 L 470.5 470" opacity="1"></path><path fill="none" stroke="#c0c0c0" stroke-width="1" stroke-dasharray="1,3" class="highcharts-grid-line" d="M 527.5 100 L 527.5 470" opacity="1"></path><path fill="none" stroke="#c0c0c0" stroke-width="1" stroke-dasharray="1,3" class="highcharts-grid-line" d="M 583.5 100 L 583.5 470" opacity="1"></path><path fill="none" stroke="#c0c0c0" stroke-width="1" stroke-dasharray="1,3" class="highcharts-grid-line" d="M 640.5 100 L 640.5 470" opacity="1"></path></g><rect fill="none" class="highcharts-plot-border" x="190" y="100" width="450" height="370"></rect><g class="highcharts-axis highcharts-xaxis "><path fill="none" class="highcharts-tick" stroke="#C0D0E0" stroke-width="1" d="M 190 123.5 L 180 123.5" opacity="1"></path><path fill="none" class="highcharts-tick" stroke="#C0D0E0" stroke-width="1" d="M 190 169.5 L 180 169.5" opacity="1"></path><path fill="none" class="highcharts-tick" stroke="#C0D0E0" stroke-width="1" d="M 190 216.5 L 180 216.5" opacity="1"></path><path fill="none" class="highcharts-tick" stroke="#C0D0E0" stroke-width="1" d="M 190 262.5 L 180 262.5" opacity="1"></path><path fill="none" class="highcharts-tick" stroke="#C0D0E0" stroke-width="1" d="M 190 308.5 L 180 308.5" opacity="1"></path><path fill="none" class="highcharts-tick" stroke="#C0D0E0" stroke-width="1" d="M 190 354.5 L 180 354.5" opacity="1"></path><path fill="none" class="highcharts-tick" stroke="#C0D0E0" stroke-width="1" d="M 190 401.5 L 180 401.5" opacity="1"></path><path fill="none" class="highcharts-tick" stroke="#C0D0E0" stroke-width="1" d="M 190 447.5 L 180 447.5" opacity="1"></path><path fill="none" class="highcharts-axis-line" stroke="gray" stroke-width="1.2" d="M 189.4 100 L 189.4 470"></path></g><g class="highcharts-axis highcharts-yaxis "><path fill="none" class="highcharts-tick" stroke="#C0D0E0" stroke-width="1" d="M 189.5 470 L 189.5 480" opacity="1"></path><path fill="none" class="highcharts-tick" stroke="#C0D0E0" stroke-width="1" d="M 245.5 470 L 245.5 480" opacity="1"></path><path fill="none" class="highcharts-tick" stroke="#C0D0E0" stroke-width="1" d="M 302.5 470 L 302.5 480" opacity="1"></path><path fill="none" class="highcharts-tick" stroke="#C0D0E0" stroke-width="1" d="M 358.5 470 L 358.5 480" opacity="1"></path><path fill="none" class="highcharts-tick" stroke="#C0D0E0" stroke-width="1" d="M 414.5 470 L 414.5 480" opacity="1"></path><path fill="none" class="highcharts-tick" stroke="#C0D0E0" stroke-width="1" d="M 470.5 470 L 470.5 480" opacity="1"></path><path fill="none" class="highcharts-tick" stroke="#C0D0E0" stroke-width="1" d="M 527.5 470 L 527.5 480" opacity="1"></path><path fill="none" class="highcharts-tick" stroke="#C0D0E0" stroke-width="1" d="M 583.5 470 L 583.5 480" opacity="1"></path><path fill="none" class="highcharts-tick" stroke="#C0D0E0" stroke-width="1" d="M 640.5 470 L 640.5 480" opacity="1"></path><path fill="none" class="highcharts-axis-line" stroke="gray" stroke-width="1" d="M 190 470.5 L 640 470.5"></path></g><g class="highcharts-series-group"><g class="highcharts-series highcharts-series-0 highcharts-bar-series " transform="translate(640,470) rotate(90) scale(-1,1) scale(1 1)" clip-path="url(#highcharts-i8cp32w-11)"><rect x="335.5" y="58.5" width="23" height="392" fill="rgb(144, 237, 125)" stroke="#ffffff" stroke-width="1" class="highcharts-point"></rect><rect x="289.5" y="37.5" width="23" height="413" fill="rgb(144, 237, 125)" stroke="#ffffff" stroke-width="1" class="highcharts-point"></rect><rect x="242.5" y="135.5" width="23" height="315" fill="rgb(144, 237, 125)" stroke="#ffffff" stroke-width="1" class="highcharts-point"></rect><rect x="196.5" y="186.5" width="23" height="264" fill="rgb(144, 237, 125)" stroke="#ffffff" stroke-width="1" class="highcharts-point"></rect><rect x="150.5" y="262.5" width="23" height="188" fill="rgb(144, 237, 125)" stroke="#ffffff" stroke-width="1" class="highcharts-point"></rect><rect x="104.5" y="276.5" width="23" height="174" fill="rgb(144, 237, 125)" stroke="#ffffff" stroke-width="1" class="highcharts-point"></rect><rect x="57.5" y="290.5" width="23" height="160" fill="rgb(144, 237, 125)" stroke="#ffffff" stroke-width="1" class="highcharts-point"></rect><rect x="11.5" y="333.5" width="23" height="117" fill="rgb(144, 237, 125)" stroke="#ffffff" stroke-width="1" class="highcharts-point"></rect></g><g class="highcharts-markers highcharts-series-0 highcharts-bar-series " transform="translate(640,470) rotate(90) scale(-1,1) scale(1 1)" clip-path="none"></g><g class="highcharts-series highcharts-series-1 highcharts-bar-series " visibility="hidden" transform="translate(640,470) rotate(90) scale(-1,1) scale(1 1)" clip-path="url(#highcharts-i8cp32w-11)"></g><g class="highcharts-markers highcharts-series-1 highcharts-bar-series " visibility="hidden" transform="translate(640,470) rotate(90) scale(-1,1) scale(1 1)" clip-path="none"></g></g><g class="highcharts-button highcharts-contextbutton" style="cursor:pointer;" stroke-linecap="round" transform="translate(645,525)"><title>Download chart image</title><rect fill="#ffffff" class=" highcharts-button-box" x="0.5" y="0.5" width="24" height="24" rx="2" ry="2" stroke="none" stroke-width="1"></rect><path fill="#666666" d="M 12 2 L 14 2 L 14 9 L 18 9 L 13 14 L 8 9 L 12 9 z M 3 16.9 L 3 21 L 22 21 L 22 17 L 22 17 L 22 21 L 3 21 L 3 16.9 z" class="highcharts-button-symbol" stroke="#666666" stroke-width="2"></path><text x="0" style="font-weight:normal;color:#333333;fill:#333333;" y="12"></text></g><text x="10" text-anchor="start" class="highcharts-title" style="color:#000000;font-size:14px;font-family:arial;font-weight:bold;fill:#000000;" y="21"><tspan>Median weekly earnings and unemployment rate by educational attainment, 2017</tspan></text><text x="10" text-anchor="start" class="highcharts-subtitle" style="color:#000000;font-family:arial;font-weight:normal;font-size:12px;fill:#000000;" y="40"></text><g class="highcharts-legend" transform="translate(170,41)"><rect fill="none" class="highcharts-legend-box" rx="0" ry="0" x="0" y="0" width="558" height="25" visibility="visible"></rect><g><g><g class="highcharts-legend-item highcharts-bar-series highcharts-color-undefined highcharts-series-0" transform="translate(8,3)"><text x="21" style="color:#000;font-size:12px;font-weight:bold;cursor:pointer;font-family:Calibri, Arial, Helvetica, sans-serif;fill:#000;" text-anchor="start" y="15"><tspan>Median usual weekly earnings</tspan></text><rect x="2" y="4" width="12" height="12" fill="rgb(144, 237, 125)" rx="6" ry="6" class="highcharts-point"></rect></g><g class="highcharts-legend-item highcharts-bar-series highcharts-color-undefined highcharts-series-1 highcharts-legend-item-hidden" transform="translate(209.73333740234375,3)"><text x="21" y="15" style="color:gray;font-size:12px;font-weight:bold;cursor:pointer;font-family:Calibri, Arial, Helvetica, sans-serif;fill:gray;" text-anchor="start"><tspan>Unemployment rate</tspan></text><rect x="2" y="4" width="12" height="12" fill="gray" rx="6" ry="6" class="highcharts-point"></rect></g></g></g></g><g class="highcharts-axis-labels highcharts-xaxis-labels "><text x="175" style="color:#000000;cursor:default;font-size:12px;font-family:Calibri, Arial, Helvetica, sans-serif;font-weight:normal;background-color:#fff;fill:#000000;" text-anchor="end" transform="translate(0,0)" y="128" opacity="1"><tspan>Doctoral degree</tspan></text><text x="175" style="color:#000000;cursor:default;font-size:12px;font-family:Calibri, Arial, Helvetica, sans-serif;font-weight:normal;background-color:#fff;fill:#000000;" text-anchor="end" transform="translate(0,0)" y="174" opacity="1"><tspan>Professional degree</tspan></text><text x="175" style="color:#000000;cursor:default;font-size:12px;font-family:Calibri, Arial, Helvetica, sans-serif;font-weight:normal;background-color:#fff;fill:#000000;" text-anchor="end" transform="translate(0,0)" y="221" opacity="1"><tspan>Master's degree</tspan></text><text x="175" style="color:#000000;cursor:default;font-size:12px;font-family:Calibri, Arial, Helvetica, sans-serif;font-weight:normal;background-color:#fff;fill:#000000;" text-anchor="end" transform="translate(0,0)" y="267" opacity="1"><tspan>Bachelor's degree</tspan></text><text x="175" style="color:#000000;cursor:default;font-size:12px;font-family:Calibri, Arial, Helvetica, sans-serif;font-weight:normal;background-color:#fff;fill:#000000;" text-anchor="end" transform="translate(0,0)" y="313" opacity="1"><tspan>Associate degree</tspan></text><text x="175" style="color:#000000;cursor:default;font-size:12px;font-family:Calibri, Arial, Helvetica, sans-serif;font-weight:normal;background-color:#fff;fill:#000000;" text-anchor="end" transform="translate(0,0)" y="359" opacity="1"><tspan>Some college, no degree</tspan></text><text x="175" style="color:#000000;cursor:default;font-size:12px;font-family:Calibri, Arial, Helvetica, sans-serif;font-weight:normal;background-color:#fff;fill:#000000;" text-anchor="end" transform="translate(0,0)" y="406" opacity="1"><tspan>High school diploma, no college</tspan></text><text x="175" style="color:#000000;cursor:default;font-size:12px;font-family:Calibri, Arial, Helvetica, sans-serif;font-weight:normal;background-color:#fff;fill:#000000;" text-anchor="end" transform="translate(0,0)" y="452" opacity="1"><tspan>Less than a high school diploma</tspan></text></g><g class="highcharts-axis-labels highcharts-yaxis-labels "><text x="190" style="color:#000000;cursor:default;font-size:12px;font-family:Calibri, Arial, Helvetica, sans-serif;font-weight:normal;background-color:#fff;fill:#000000;" text-anchor="middle" transform="translate(0,0)" y="490" opacity="1">$0</text><text x="246.25" style="color:#000000;cursor:default;font-size:12px;font-family:Calibri, Arial, Helvetica, sans-serif;font-weight:normal;background-color:#fff;fill:#000000;" text-anchor="middle" transform="translate(0,0)" y="490" opacity="1">$250</text><text x="302.5" style="color:#000000;cursor:default;font-size:12px;font-family:Calibri, Arial, Helvetica, sans-serif;font-weight:normal;background-color:#fff;fill:#000000;" text-anchor="middle" transform="translate(0,0)" y="490" opacity="1">$500</text><text x="358.75" style="color:#000000;cursor:default;font-size:12px;font-family:Calibri, Arial, Helvetica, sans-serif;font-weight:normal;background-color:#fff;fill:#000000;" text-anchor="middle" transform="translate(0,0)" y="490" opacity="1">$750</text><text x="415" style="color:#000000;cursor:default;font-size:12px;font-family:Calibri, Arial, Helvetica, sans-serif;font-weight:normal;background-color:#fff;fill:#000000;" text-anchor="middle" transform="translate(0,0)" y="490" opacity="1">$1,000</text><text x="471.25" style="color:#000000;cursor:default;font-size:12px;font-family:Calibri, Arial, Helvetica, sans-serif;font-weight:normal;background-color:#fff;fill:#000000;" text-anchor="middle" transform="translate(0,0)" y="490" opacity="1">$1,250</text><text x="527.5" style="color:#000000;cursor:default;font-size:12px;font-family:Calibri, Arial, Helvetica, sans-serif;font-weight:normal;background-color:#fff;fill:#000000;" text-anchor="middle" transform="translate(0,0)" y="490" opacity="1">$1,500</text><text x="583.75" style="color:#000000;cursor:default;font-size:12px;font-family:Calibri, Arial, Helvetica, sans-serif;font-weight:normal;background-color:#fff;fill:#000000;" text-anchor="middle" transform="translate(0,0)" y="490" opacity="1">$1,750</text><text x="640" style="color:#000000;cursor:default;font-size:12px;font-family:Calibri, Arial, Helvetica, sans-serif;font-weight:normal;background-color:#fff;fill:#000000;" text-anchor="middle" transform="translate(0,0)" y="490" opacity="1">$2,000</text></g><text x="10" class="highcharts-credits" text-anchor="start" style="cursor:default;color:#2C2C2C;font-size:9px;fill:#2C2C2C;" y="517"><tspan>Click legend items to change data display. Hover over chart to view data.</tspan><tspan x="10" dy="12">Note: Data are for persons age 25 and over. Earnings are for full-time wage and salary workers.</tspan><tspan x="10" dy="12">Source: U.S. Bureau of Labor Statistics.</tspan></text></svg>